<svg width="290" height="114" viewBox="0 0 290 114" fill="none" xmlns="http://www.w3.org/2000/svg">
<path d="M288.179 25.4444C274.647 52.6566 259.932 78.6899 249.465 107.15C245.276 116.785 230.56 110.648 234.575 100.852C243.66 76.0912 256.056 53.1304 267.81 29.8756C246.46 33.3723 224.909 35.1561 203.285 35.5334C192.775 35.4541 192.705 19.5347 203.289 19.3658C210.661 19.1476 218.025 18.8978 225.388 18.5307C238.268 17.8352 251.003 15.9279 263.765 14.1619C273.089 12.369 293.034 9.93541 288.179 25.4444Z" fill="white"/>
<path d="M276.221 35.1827C265.006 44.9852 251.498 51.8111 239.345 60.3713C224.563 70.7533 208.373 79.0899 190.922 83.9499C165.622 91.3082 138.942 91.7923 112.832 93.8322C75.7081 94.2402 36.0013 85.9731 5.10462 64.6741C-3.08536 58.1115 6.52947 45.4689 14.9774 51.8802C18.0834 54.5159 21.6272 56.48 25.1883 58.4303C73.779 83.1179 130.448 80.3138 182.426 69.6017C213.662 61.3222 240.256 41.1799 266.063 22.5403C272.446 5.95649 292.046 22.9257 276.221 35.1827Z" fill="white"/>
</svg>
