<svg width="295" height="105" viewBox="0 0 295 105" fill="none" xmlns="http://www.w3.org/2000/svg">
<path d="M0.57532 12.473C13.2396 41.2722 27.1842 68.9101 36.6183 98.8495C40.4796 109.018 55.9966 103.39 52.3226 93.065C44.1377 67.0174 32.4407 42.6697 21.4219 18.0495C43.3282 22.7076 65.5257 25.6043 87.8671 27.0502C98.7389 27.4813 99.5877 11.0233 88.6521 10.332C81.0402 9.74648 73.4369 9.12855 65.8413 8.38952C52.5575 7.04155 39.4818 4.4475 26.3716 1.99841C16.8174 -0.310744 -3.68696 -3.80093 0.57532 12.473Z" fill="white"/>
<path d="M12.4659 23.1258C23.5837 33.8095 37.2189 41.5272 49.3674 50.9722C64.1458 62.4293 80.4795 71.8401 98.2879 77.7175C124.089 86.5614 151.654 88.3646 178.554 91.7487C216.921 93.983 258.383 87.3731 291.371 66.8574C300.161 60.4713 290.836 46.9289 281.787 53.146C278.447 55.7198 274.686 57.5777 270.909 59.4206C219.459 82.5763 160.998 76.91 107.774 63.2957C75.8786 53.2094 49.3621 31.083 23.5868 10.549C17.7964 -6.91098 -3.29988 9.67898 12.4659 23.1258Z" fill="white"/>
</svg>
